<svg xmlns="http://www.w3.org/2000/svg" width="28" height="28" viewBox="0 0 28 28" fill="none"><circle cx="14" cy="14" r="14" fill="#DDF770"></circle><path d="M14.1236 20C13.3403 20 12.6407 19.865 12.0247 19.5951C11.4125 19.3251 10.9278 18.9506 10.5703 18.4715C10.2167 17.9886 10.0266 17.4297 10 16.7947H11.7909C11.8137 17.1407 11.9297 17.4411 12.1388 17.6958C12.3517 17.9468 12.6293 18.1407 12.9715 18.2776C13.3137 18.4144 13.6939 18.4829 14.1122 18.4829C14.5722 18.4829 14.9791 18.403 15.3327 18.2433C15.6901 18.0837 15.9696 17.8612 16.1711 17.576C16.3726 17.2871 16.4734 16.9544 16.4734 16.5779C16.4734 16.1863 16.3726 15.8422 16.1711 15.5456C15.9734 15.2452 15.6825 15.0095 15.2985 14.8384C14.9183 14.6673 14.4582 14.5817 13.9183 14.5817H12.9316V13.1445H13.9183C14.3517 13.1445 14.7319 13.0665 15.0589 12.9106C15.3897 12.7548 15.6483 12.538 15.8346 12.2605C16.0209 11.9791 16.1141 11.6502 16.1141 11.2738C16.1141 10.9125 16.0323 10.5989 15.8688 10.3327C15.7091 10.0627 15.481 9.85171 15.1844 9.69962C14.8916 9.54753 14.5456 9.47148 14.1464 9.47148C13.7662 9.47148 13.4106 9.54183 13.0798 9.68251C12.7529 9.81939 12.4867 10.0171 12.2814 10.2757C12.076 10.5304 11.9658 10.8365 11.9506 11.1939H10.2452C10.2643 10.5627 10.4506 10.0076 10.8042 9.52852C11.1616 9.04943 11.6331 8.6749 12.2186 8.40494C12.8042 8.13498 13.4544 8 14.1692 8C14.9183 8 15.5646 8.14639 16.1084 8.43916C16.6559 8.72814 17.0779 9.11407 17.3745 9.59696C17.6749 10.0798 17.8232 10.6084 17.8194 11.1825C17.8232 11.8365 17.6407 12.3916 17.2719 12.8479C16.9068 13.3042 16.4202 13.6103 15.8118 13.7662V13.8574C16.5875 13.9753 17.1882 14.2833 17.6141 14.7814C18.0437 15.2795 18.2567 15.8973 18.2529 16.635C18.2567 17.2776 18.0779 17.8536 17.7167 18.3631C17.3593 18.8726 16.8707 19.2738 16.2509 19.5665C15.6312 19.8555 14.9221 20 14.1236 20Z" fill="black"></path></svg>