<svg xmlns="http://www.w3.org/2000/svg" width="28" height="28" viewBox="0 0 28 28" fill="none"><circle cx="14" cy="14" r="14" fill="#DDF770"></circle><path d="M10.0116 20V18.7052L14.0173 14.5549C14.4451 14.104 14.7977 13.7091 15.0751 13.3699C15.3565 13.027 15.5665 12.7013 15.7052 12.3931C15.8439 12.0848 15.9133 11.7572 15.9133 11.4104C15.9133 11.0173 15.8208 10.6782 15.6358 10.3931C15.4509 10.104 15.1985 9.88247 14.8786 9.72832C14.5588 9.57033 14.1985 9.49133 13.7977 9.49133C13.3738 9.49133 13.0039 9.57803 12.6879 9.75145C12.3719 9.92486 12.1291 10.1696 11.9595 10.4855C11.79 10.8015 11.7052 11.1715 11.7052 11.5954H10C10 10.8748 10.1657 10.2447 10.4971 9.7052C10.8285 9.1657 11.2832 8.74759 11.8613 8.45087C12.4393 8.15029 13.0963 8 13.8324 8C14.5761 8 15.2312 8.14836 15.7977 8.44509C16.368 8.73796 16.8131 9.13873 17.1329 9.6474C17.4528 10.1522 17.6127 10.7225 17.6127 11.3584C17.6127 11.7977 17.5299 12.2274 17.3642 12.6474C17.2023 13.0674 16.9191 13.5356 16.5145 14.052C16.1098 14.5645 15.5472 15.1869 14.8266 15.9191L12.474 18.3815V18.4682H17.8035V20H10.0116Z" fill="black"></path></svg>