<svg xmlns="http://www.w3.org/2000/svg" width="101" height="161" viewBox="0 0 101 161" fill="none"><path d="M56.8832 72.0138C60.756 71.4546 64.5947 70.8204 65.4017 70.6412C66.2063 70.4359 68.6482 70.1332 70.8281 69.9686C73.008 69.804 75.7717 69.7254 76.9866 69.8124C78.2015 69.8994 79.7583 70.1287 80.4623 70.3318C81.1664 70.5349 81.9719 70.6462 82.2704 70.6092C82.5688 70.5722 83.2883 70.6414 83.9016 70.7501C84.4854 70.8362 85.3686 71.2018 85.8897 71.5067C86.3837 71.815 87.1074 72.5436 87.4914 73.1558C88.0322 73.9862 88.6193 75.9459 89.9704 81.5325C90.9346 85.557 92.2851 91.7508 92.9855 95.2801C93.6881 98.8355 94.6327 103.865 95.0884 106.501C95.544 109.137 96.315 112.842 96.7865 114.737C97.2581 116.632 97.8738 119.829 98.1353 121.829C98.4132 124.011 98.5507 126.159 98.4792 127.197C98.4006 128.157 98.4193 131.428 98.5527 134.446C98.6861 137.465 98.7923 140.488 98.7965 141.147C98.7736 141.81 98.564 142.839 98.317 143.45C98.0972 144.058 97.3426 145.128 96.6662 145.845C95.8883 146.654 94.9607 147.324 94.1135 147.666C93.2934 148.005 90.0315 148.647 85.4874 149.369C81.4587 150.027 76.2929 150.852 73.9937 151.216C71.6968 151.606 61.9433 152.973 52.3208 154.272C42.6983 155.57 32.092 156.911 28.7206 157.25L28.6269 157.259C22.7089 157.836 22.5682 157.85 21.3177 157.296C20.6067 157.015 19.68 156.47 19.2356 156.103C18.7935 155.761 18.1465 154.971 17.7896 154.355C17.4598 153.736 17.0196 152.497 16.854 151.567C16.6612 150.641 16.0517 147.206 15.4585 143.954C14.8381 140.705 13.7149 134.905 12.9322 131.07C12.1496 127.234 10.9416 121.101 10.3087 117.405C9.4371 112.578 8.90237 108.447 8.36293 102.733C7.72057 95.8712 7.67798 94.4775 7.92355 92.6258C8.11908 91.4402 8.56393 89.6694 8.94096 88.6725C9.38769 87.5349 10.225 86.1642 11.2687 84.9526C12.4316 83.5415 13.4762 82.6466 15.0882 81.6549C16.3344 80.867 18.5185 79.8308 20.0865 79.2669C21.6274 78.7064 24.2714 77.9036 25.962 77.4829C27.6503 77.0361 31.7711 76.1822 35.1167 75.5563C38.4624 74.9305 43.1328 74.0876 45.5134 73.7134C47.894 73.3391 53.0103 72.573 56.8832 72.0138Z" fill="#DDF770"></path><path d="M27.1923 11.0553C28.1469 10.4568 29.4546 9.73458 30.1307 9.46432C30.8068 9.19407 32.5938 8.81397 34.118 8.62657C35.8892 8.38208 37.4531 8.32347 38.4493 8.49505C39.2998 8.60435 40.8561 9.08134 41.9039 9.51391C42.9518 9.94647 44.6136 10.9719 45.6371 11.755C46.6353 12.5679 48.044 13.8918 48.7325 14.6893C49.4211 15.4868 50.5994 17.0529 51.3444 18.1643C52.064 19.3055 53.1506 21.0967 53.7221 22.1492C54.296 23.2282 55.4558 25.5183 56.2858 27.2609C57.1436 29 58.4534 32.0202 59.2194 33.9844C60.0131 35.9453 61.267 39.5872 62.023 42.0607C62.8068 44.5307 63.7788 48.1538 64.1774 50.083C64.6036 52.0089 65.2589 55.5373 65.6427 57.9228C66.0265 60.3083 66.4227 63.7616 66.5346 65.6192C66.6718 67.4469 66.7044 69.0469 66.6284 69.1364C66.5524 69.226 64.0196 69.7245 60.9855 70.2579C57.9515 70.7913 54.6632 71.3026 51.8523 71.5145L51.3356 67.9691C51.0479 66.0262 50.4481 62.491 49.9811 60.1157C49.5419 57.7369 48.4695 53.0034 47.6275 49.5781C46.8131 46.1495 45.4841 41.3673 44.7353 38.9732C43.9865 36.5791 42.7889 33.251 42.0793 31.6006C41.3998 29.9732 40.2472 27.7624 39.5625 26.6971C38.8524 25.6616 37.9087 24.5212 37.4294 24.1791C36.9779 23.8336 36.2745 23.4924 35.8746 23.4079C35.4446 23.3003 34.8903 23.3685 34.489 23.5782C34.1129 23.7581 33.5367 24.2032 33.2051 24.5648C32.9013 24.9229 32.3222 25.9565 31.9529 26.8306C31.586 27.7312 31.0834 29.6109 30.8149 30.9805C30.5489 32.3766 30.2026 34.745 30.0569 36.2332C29.8835 37.7248 29.6548 42.3243 29.5795 46.4504C29.4765 50.58 29.4294 55.6383 29.4472 57.6946C29.4927 59.7475 29.782 64.4971 30.7357 75.0463L30.1356 75.2271C29.7801 75.3242 27.7785 75.8109 25.6662 76.3112C23.5538 76.8115 20.6039 77.6554 19.1107 78.1865C17.62 78.744 16.3366 79.1157 16.2463 79.0466C16.1584 79.0039 15.7535 75.7655 15.3491 71.9122C14.9423 68.0325 14.5345 62.2816 14.4187 59.1413C14.3307 55.9976 14.3195 51.5346 14.4212 49.2498C14.4951 46.9684 14.7544 43.3275 14.9235 41.1681C15.1202 39.0052 15.6289 35.3337 16.0077 33.0149C16.4142 30.6926 17.0658 27.6718 17.4729 26.2851C17.8522 24.9018 18.5187 22.9753 18.9314 21.9622C19.3442 20.949 20.1961 19.2136 20.8258 18.1203C21.4555 17.027 22.7761 15.2072 23.7154 14.1294C24.7054 12.9918 26.2123 11.6837 27.1923 11.0553Z" fill="black"></path><path d="M44.2942 90.1945C45.1704 89.659 46.4323 89.0494 47.1132 88.832C47.794 88.6147 48.699 88.3965 49.1677 88.3121C49.6111 88.2576 50.8124 88.2168 51.8243 88.2528C52.8364 88.2888 54.4289 88.5475 55.3817 88.8581C56.332 89.1422 57.8893 89.9399 58.8731 90.5942C60.0724 91.4626 60.9645 92.342 61.7191 93.5592C62.5338 94.8224 62.9294 95.7896 63.1899 97.121C63.4179 98.4029 63.4304 99.4706 63.2006 100.648C63.0348 101.604 62.6531 102.961 62.355 103.693C62.0593 104.451 61.5767 105.312 61.2705 105.644C60.8376 106.125 60.7349 106.539 60.8725 107.752C60.949 108.598 61.2549 110.431 61.5479 111.812C61.8432 113.219 62.5003 115.839 63.0556 117.642C63.8283 120.3 63.9927 121.189 63.8571 122.168C63.7506 122.849 63.5499 123.73 63.3641 124.153C63.1806 124.604 62.6632 125.389 62.1821 125.956C61.7286 126.52 60.6847 127.37 59.8867 127.842C58.7429 128.518 58.009 128.768 56.4848 128.956C55.0691 129.103 54.2257 129.073 53.3838 128.749C52.7478 128.533 51.7712 127.958 51.2245 127.49C50.6478 127 49.9702 126.014 49.5746 125.047C49.2162 124.182 48.5309 122.181 48.0549 120.636C47.5766 119.064 46.9051 116.286 45.9005 111.063L44.4838 110.889C43.6911 110.8 42.5372 110.434 41.8893 110.085C41.2414 109.737 40.2709 108.921 39.763 108.262C39.2273 107.606 38.6606 106.606 38.4971 106.038C38.3337 105.47 38.1406 104.264 38.057 103.339C37.9757 102.44 37.99 101.048 38.0869 100.261C38.1863 99.5 38.6296 97.895 39.0582 96.7462C39.5784 95.3723 40.3276 94.0505 41.2621 92.9198C42.1207 91.8785 43.3395 90.793 44.2942 90.1945Z" fill="black"></path></svg>